<svg xmlns:xlink="http://www.w3.org/1999/xlink" xmlns="http://www.w3.org/2000/svg" width="38" height="38"  fill="none"><path fill="#284260" d="M21.115 2.44C19.173.797 16.125 0 12.013 0 10.183.003 8.36.196 6.57.576a10.14 10.14 0 0 0-3.745 1.821A7.072 7.072 0 0 0 .66 5.146 8.311 8.311 0 0 0 0 8.476v1.24a.488.488 0 0 0 .482.486h4.947c.25.018.467-.17.485-.423v-.017a5.296 5.296 0 0 1 1.234-3.065c.886-.976 2.436-1.468 4.776-1.468a8.89 8.89 0 0 1 2.934.409c.679.21 1.31.558 1.85 1.022a3.5 3.5 0 0 1 .975 1.372c.203.46.31.961.312 1.465v1.335a3.302 3.302 0 0 1-.312 1.508c-.18.41-.421.786-.72 1.117-.274.262-.57.5-.885.714a6.825 6.825 0 0 1-.707.397c-.175.09-.665.222-1.413.535-.796.265-1.638.576-2.652.927-1.018.403-2.08.714-3.152 1.11-1.071.398-2.034.668-2.865.976a7.346 7.346 0 0 0-3.882 3.111 9.348 9.348 0 0 0-1.37 4.893v3.33a9.76 9.76 0 0 0 .496 2.777 6.026 6.026 0 0 0 1.768 2.797 10.021 10.021 0 0 0 3.667 2.133c1.55.532 3.538.843 6.057.843 2.472 0 4.506-.265 6.056-.843.332-.124.653-.256.957-.394a9.499 9.499 0 0 0 2.707-1.727 6.388 6.388 0 0 0 1.77-2.798A9.865 9.865 0 0 0 24 29.444V8.564c-.012-2.44-.985-4.483-2.885-6.124Zm-9.102 30.322c-2.292 0-3.89-.486-4.727-1.332C6.449 30.584 6 29.21 6 27.432a4.41 4.41 0 0 1 .532-2.219 5.606 5.606 0 0 1 1.146-1.462 8.629 8.629 0 0 1 1.633-.978c.711-.27 1.55-.535 2.39-.843a36.913 36.913 0 0 0 2.292-.8c.641-.213 1.28-.43 1.873-.645l.425-.155c.375-.133.73-.311 1.06-.533.37-.244.624-.627.71-1.065l.043 8.746c0 1.69-.444 2.976-1.286 3.909a4.4 4.4 0 0 1-2.129 1.093 11.41 11.41 0 0 1-2.676.282Z"/></svg>